<svg width="576" height="321" viewBox="0 0 576 321" fill="none" xmlns="http://www.w3.org/2000/svg">
<path opacity="0.8" d="M293.061 319.677C380.892 319.677 452.094 248.322 452.094 160.302C452.094 72.2814 380.892 0.926758 293.061 0.926758C205.229 0.926758 134.027 72.2814 134.027 160.302C134.027 248.322 205.229 319.677 293.061 319.677Z" fill="url(#paint0_linear_9492_36789)"/>
<path opacity="0.8" d="M191.63 314.426C231.453 316.878 265.722 286.565 268.172 246.721C270.622 206.877 240.326 172.589 200.504 170.138C160.681 167.686 126.412 197.999 123.962 237.843C121.512 277.687 151.808 311.975 191.63 314.426Z" fill="url(#paint1_linear_9492_36789)"/>
<path opacity="0.8" d="M498.051 258.896C540.91 258.896 575.653 224.248 575.653 181.508C575.653 138.767 540.91 104.119 498.051 104.119C455.193 104.119 420.449 138.767 420.449 181.508C420.449 224.248 455.193 258.896 498.051 258.896Z" fill="url(#paint2_linear_9492_36789)"/>
<path opacity="0.6" d="M67.6974 245.158C110.019 291.686 182.025 295.077 228.528 252.733C275.031 210.388 278.42 138.342 236.099 91.8144C193.777 45.2863 121.771 41.895 75.2681 84.2396C28.7653 126.584 25.3758 198.63 67.6974 245.158Z" fill="url(#paint3_linear_9492_36789)" fill-opacity="0.8"/>
<path opacity="0.8" d="M402.568 298.232C466.574 298.232 518.461 246.203 518.461 182.021C518.461 117.84 466.574 65.8101 402.568 65.8101C338.563 65.8101 286.676 117.84 286.676 182.021C286.676 246.203 338.563 298.232 402.568 298.232Z" fill="url(#paint4_linear_9492_36789)"/>
<defs>
<linearGradient id="paint0_linear_9492_36789" x1="287.748" y1="316.757" x2="298.609" y2="-2.40142" gradientUnits="userSpaceOnUse">
<stop offset="0.255208" stop-color="white" stop-opacity="0"/>
<stop offset="0.34375" stop-color="white" stop-opacity="0.01"/>
<stop offset="0.401042" stop-color="white" stop-opacity="0.06"/>
<stop offset="0.515625" stop-color="white" stop-opacity="0.13"/>
<stop offset="0.614583" stop-color="white" stop-opacity="0.23"/>
<stop offset="0.708333" stop-color="white" stop-opacity="0.36"/>
<stop offset="0.82" stop-color="white" stop-opacity="0.52"/>
<stop offset="0.880208" stop-color="white" stop-opacity="0.6"/>
<stop offset="1" stop-color="white" stop-opacity="0.9"/>
</linearGradient>
<linearGradient id="paint1_linear_9492_36789" x1="167.408" y1="307.357" x2="225.819" y2="174.924" gradientUnits="userSpaceOnUse">
<stop offset="0.265625" stop-color="white" stop-opacity="0"/>
<stop offset="0.348958" stop-color="white" stop-opacity="0.02"/>
<stop offset="0.473958" stop-color="white" stop-opacity="0.09"/>
<stop offset="0.598958" stop-color="white" stop-opacity="0.2"/>
<stop offset="0.71875" stop-color="white" stop-opacity="0.4"/>
<stop offset="0.859375" stop-color="white" stop-opacity="0.65"/>
<stop offset="1" stop-color="white" stop-opacity="0.9"/>
</linearGradient>
<linearGradient id="paint2_linear_9492_36789" x1="428.117" y1="147.484" x2="567.698" y2="215.726" gradientUnits="userSpaceOnUse">
<stop offset="0.286458" stop-color="white" stop-opacity="0"/>
<stop offset="0.354167" stop-color="white" stop-opacity="0.01"/>
<stop offset="0.458333" stop-color="white" stop-opacity="0.05"/>
<stop offset="0.54" stop-color="white" stop-opacity="0.12"/>
<stop offset="0.63" stop-color="white" stop-opacity="0.22"/>
<stop offset="0.713542" stop-color="white" stop-opacity="0.34"/>
<stop offset="0.791667" stop-color="white" stop-opacity="0.5"/>
<stop offset="0.88" stop-color="white" stop-opacity="0.68"/>
<stop offset="0.96" stop-color="white" stop-opacity="0.88"/>
<stop offset="1" stop-color="white"/>
</linearGradient>
<linearGradient id="paint3_linear_9492_36789" x1="262.384" y1="153.273" x2="37.336" y2="184.254" gradientUnits="userSpaceOnUse">
<stop offset="0.270833" stop-color="white" stop-opacity="0"/>
<stop offset="0.338542" stop-color="white" stop-opacity="0.02"/>
<stop offset="0.421875" stop-color="white" stop-opacity="0.09"/>
<stop offset="0.541667" stop-color="white" stop-opacity="0.2"/>
<stop offset="0.640625" stop-color="white" stop-opacity="0.35"/>
<stop offset="0.734375" stop-color="white" stop-opacity="0.54"/>
<stop offset="0.833333" stop-color="white" stop-opacity="0.77"/>
<stop offset="0.90625" stop-color="white" stop-opacity="0.85"/>
<stop offset="1" stop-color="white"/>
</linearGradient>
<linearGradient id="paint4_linear_9492_36789" x1="476.373" y1="276.58" x2="333.027" y2="93.9296" gradientUnits="userSpaceOnUse">
<stop offset="0.229167" stop-color="white" stop-opacity="0"/>
<stop offset="0.385417" stop-color="white" stop-opacity="0.03"/>
<stop offset="0.526042" stop-color="white" stop-opacity="0.1"/>
<stop offset="0.651042" stop-color="white" stop-opacity="0.21"/>
<stop offset="0.770833" stop-color="white" stop-opacity="0.37"/>
<stop offset="0.880208" stop-color="white" stop-opacity="0.58"/>
<stop offset="1" stop-color="white" stop-opacity="0.9"/>
</linearGradient>
</defs>
</svg>
